This is not my rip.

It started out as a good quality 25fps HDTV capture, and a comparison to the DVD showed that it was merely speeded up audio/video with no frames missing.

I fixed the frame rate, color-corrected it to match the DVD, and added the DTS soundtrack from the DVD.

General
Unique ID                        : 173564349350630778442166890937023671921 (0x8293471BE2A6755D9EB18432846F2E71)
Format                           : Matroska
Format version                   : Version 4 / Version 2
File size                        : 2.25 GiB
Duration                         : 1h 40mn
Overall bit rate mode            : Variable
Overall bit rate                 : 3 217 Kbps
Encoded date                     : UTC 2013-01-23 18:11:35
Writing application              : mkvmerge v6.0.0 ('Coming Up For Air') built on Jan 20 2013 09:52:00
Writing library                  : libebml v1.3.0 + libmatroska v1.4.0

Video
ID                               : 1
Format                           : AVC
Format/Info                      : Advanced Video Codec
Format profile                   : High@L4.1
Format settings, CABAC           : Yes
Format settings, ReFrames        : 7 frames
Codec ID                         : V_MPEG4/ISO/AVC
Duration                         : 1h 40mn
Bit rate mode                    : Variable
Bit rate                         : 2 398 Kbps
Maximum bit rate                 : 14.0 Mbps
Width                            : 1 280 pixels
Height                           : 692 pixels
Display aspect ratio             : 1.850
Frame rate                       : 23.976 fps
Color space                      : YUV
Chroma subsampling               : 4:2:0
Bit depth                        : 8 bits
Scan type                        : Progressive
Bits/(Pixel*Frame)               : 0.113
Stream size                      : 1.68 GiB (75%)
Writing library                  : x264 core 129 r2230 1cffe9f
Language                         : English
Default                          : Yes
Forced                           : No

Audio
ID                               : 2
Format                           : DTS
Format/Info                      : Digital Theater Systems
Codec ID                         : A_DTS
Duration                         : 1h 40mn
Bit rate mode                    : Constant
Bit rate                         : 755 Kbps
Channel(s)                       : 6 channels
Channel positions                : Front: L C R, Side: L R, LFE
Sampling rate                    : 48.0 KHz
Bit depth                        : 24 bits
Compression mode                 : Lossy
Stream size                      : 541 MiB (23%)
Language                         : English
Default                          : Yes
Forced                           : No

Menu
00:00:00.000                     : en:The Phantom Photographer
00:02:47.584                     : en:One Lousy Piece of Property
00:05:20.612                     : en:Welcome to Whipstaff Manor
00:10:40.849                     : en:The Ghost Shrink
00:19:27.583                     : en:The Ghost and His Guests
00:27:14.863                     : en:Stretch, Fatso and Stinkie
00:29:48.495                     : en:The Morph the Merrier
00:37:35.044                     : en:Breakfast With the Boys
00:41:00.458                     : en:The New Kid in Town
00:44:30.334                     : en:Goofing on Amelia
00:50:23.854                     : en:When I Was Alive...
00:58:35.701                     : en:I Remember!
01:02:39.236                     : en:The "Up and At 'Em" Machine
01:05:28.530                     : en:The Lazarus
01:12:29.720                     : en:A Croaking at the Karaoke
01:15:23.416                     : en:The Heiress Comes Haunting
01:20:32.911                     : en:The Late Dr. Harvey
01:25:25.537                     : en:A Cinderella Deal
01:27:15.313                     : en:The Life of the Party
01:32:21.536                     : en:The Party's Over
01:33:56.089                     : en:End Titles
